Coordinates
version=1
nRows=11
nColumns=63
inDegrees=yes

Units are S.I. units (second, meters, Newtons, ...)
If the header above contains a line with 'inDegrees', this indicates whether rotational values are in degrees (yes) or radians (no).

endheader
time	pelvis_tilt	pelvis_list	pelvis_rotation	pelvis_tx	pelvis_ty	pelvis_tz	hip_flexion_r	hip_adduction_r	hip_rotation_r	knee_angle_r	knee_angle_r_beta	ankle_angle_r	subtalar_angle_r	mtp_angle_r	hip_flexion_l	hip_adduction_l	hip_rotation_l	knee_angle_l	knee_angle_l_beta	ankle_angle_l	subtalar_angle_l	mtp_angle_l	L5_S1_Flex_Ext	L5_S1_Lat_Bending	L5_S1_axial_rotation	L4_L5_Flex_Ext	L4_L5_Lat_Bending	L4_L5_axial_rotation	L3_L4_Flex_Ext	L3_L4_Lat_Bending	L3_L4_axial_rotation	L2_L3_Flex_Ext	L2_L3_Lat_Bending	L2_L3_axial_rotation	L1_L2_Flex_Ext	L1_L2_Lat_Bending	L1_L2_axial_rotation	L1_T12_Flex_Ext	L1_T12_Lat_Bending	L1_T12_axial_rotation	Abs_r3	Abs_r2	Abs_r1	Abs_t1	Abs_t2	neck_flexion	neck_bending	neck_rotation	arm_flex_r	arm_add_r	arm_rot_r	elbow_flex_r	pro_sup_r	wrist_flex_r	wrist_dev_r	arm_flex_l	arm_add_l	arm_rot_l	elbow_flex_l	pro_sup_l	wrist_flex_l	wrist_dev_l
1.377358	-8.848905	-0.145480	85.388089	0.329932	0.982512	0.642988	4.762165	-9.502894	-14.395982	14.320415	0.249938	41.054167	16.980197	0.000000	5.318033	7.128281	-4.417298	11.460934	0.200031	34.319757	7.916679	0.000000	-0.349194	-1.821950	0.245168	-0.648489	-2.423194	0.260491	-0.573692	-4.429890	0.260491	-0.399094	-4.429890	0.214522	-0.324262	-3.715321	0.199199	-0.199530	-2.822201	0.183876	-2.494261	-20.610264	1.363553	0.000000	0.000000	25.598635	15.858766	-14.229993	9.041087	-19.834305	-13.842672	63.548871	85.379133	0.225766	8.827430	15.076050	-17.453969	143.643599	9.731157	4.698089	-5.497971	-11.211834
1.396226	-9.017946	-0.006057	85.386102	0.330284	0.982748	0.643115	4.643035	-9.678348	-14.460877	14.299281	0.249570	41.125086	17.048227	0.000000	5.183892	7.297339	-4.572573	11.332969	0.197798	34.366308	8.011931	0.000000	-0.362730	-1.859619	0.246393	-0.673626	-2.473294	0.261793	-0.595929	-4.521478	0.261793	-0.414564	-4.521478	0.215594	-0.336831	-3.792136	0.200194	-0.207264	-2.880550	0.184795	-2.590944	-21.036385	1.370365	0.000000	0.000000	25.378840	16.318534	-13.692636	9.017875	-19.952523	-12.271208	62.284352	85.843578	0.010118	9.385842	15.218958	-17.379406	144.547714	9.493552	4.703782	-5.372770	-10.388653
1.415094	-9.186891	0.091887	85.360177	0.330724	0.982852	0.643083	4.556017	-9.841590	-14.507135	14.257723	0.248844	41.214897	17.123470	0.000000	5.074406	7.464249	-4.671604	11.183508	0.195189	34.400148	8.028878	0.000000	-0.372661	-1.896349	0.269705	-0.692068	-2.522145	0.286561	-0.612245	-4.610784	0.286561	-0.425914	-4.610784	0.235992	-0.346053	-3.867036	0.219135	-0.212938	-2.937445	0.202278	-2.661879	-21.451884	1.500016	0.000000	0.000000	25.187795	16.723045	-13.207030	8.938022	-19.889004	-10.654806	60.671883	86.324699	-0.159574	9.449498	15.342383	-17.260169	145.609249	9.153122	4.715103	-5.252935	-9.505729
1.433962	-9.345940	0.139576	85.315457	0.331229	0.982786	0.642885	4.510371	-9.983801	-14.541872	14.202397	0.247879	41.327140	17.202215	0.000000	5.005094	7.617011	-4.719201	11.034860	0.192595	34.432376	7.977739	0.000000	-0.378011	-1.929712	0.317961	-0.702004	-2.566516	0.337834	-0.621034	-4.691901	0.337834	-0.432029	-4.691901	0.278216	-0.351021	-3.935068	0.258344	-0.215996	-2.989123	0.238471	-2.700095	-21.829284	1.768406	0.000000	0.000000	25.055556	17.018757	-12.777286	8.813573	-19.639886	-9.039857	58.726046	86.845493	-0.414823	9.079184	15.439795	-17.078803	146.977609	8.682685	4.715371	-5.138315	-8.610086
1.452830	-9.487508	0.135365	85.227627	0.331801	0.982509	0.642532	4.523838	-10.099823	-14.546254	14.157235	0.247090	41.461531	17.288191	0.000000	4.979192	7.745091	-4.734920	10.895522	0.190163	34.477100	7.868725	0.000000	-0.377892	-1.957268	0.395315	-0.701782	-2.603166	0.420022	-0.620838	-4.758901	0.420022	-0.431892	-4.758901	0.345901	-0.350910	-3.991261	0.321193	-0.215927	-3.031808	0.296486	-2.699242	-22.141007	2.198623	0.000000	0.000000	25.003014	17.190915	-12.350301	8.585960	-19.155291	-8.038788	56.552681	88.116872	-0.752209	8.584576	15.503473	-16.822843	148.636511	8.086085	4.874648	-5.052641	-7.720658
1.471698	-9.610981	0.093914	85.077412	0.332441	0.982034	0.642061	4.588960	-10.190382	-14.492683	14.125596	0.246538	41.617049	17.379328	0.000000	4.978579	7.853796	-4.683419	10.756857	0.187743	34.519461	7.633580	0.000000	-0.372776	-1.978423	0.498628	-0.692282	-2.631303	0.529793	-0.612433	-4.810339	0.529793	-0.426045	-4.810339	0.436300	-0.346159	-4.034401	0.405136	-0.213004	-3.064578	0.373971	-2.662699	-22.380322	2.773222	0.000000	0.000000	25.030957	17.268782	-11.878050	8.411664	-18.538000	-6.475580	54.015373	88.747314	-1.336075	7.843784	15.523884	-16.501766	150.710933	7.380096	5.074224	-5.011459	-6.851897
1.490566	-9.693376	0.026335	84.855662	0.333036	0.981327	0.641517	4.709024	-10.244248	-14.387971	14.139468	0.246780	41.799613	17.483066	0.000000	4.993064	7.926609	-4.564946	10.619349	0.185343	34.581980	7.263029	0.000000	-0.364870	-1.987988	0.631430	-0.677601	-2.644025	0.670894	-0.599446	-4.833595	0.670894	-0.417010	-4.833595	0.552501	-0.338819	-4.053906	0.513037	-0.208487	-3.079394	0.473572	-2.606233	-22.488522	3.511823	0.000000	0.000000	25.145227	17.147328	-11.389250	7.909745	-17.952769	-9.311533	51.989002	92.575393	-2.310085	7.490651	15.520582	-16.084352	153.218505	6.595256	5.375740	-5.015260	-6.031783
1.509434	-9.747322	-0.053463	84.573249	0.333636	0.980471	0.640900	4.857142	-10.269757	-14.227933	14.174537	0.247392	41.995522	17.592850	0.000000	5.009320	7.974902	-4.386324	10.478874	0.182891	34.658642	6.776163	0.000000	-0.354555	-1.988911	0.785567	-0.658445	-2.645252	0.834665	-0.582499	-4.835839	0.834665	-0.405221	-4.835839	0.687371	-0.329240	-4.055788	0.638273	-0.202593	-3.080824	0.589175	-2.532554	-22.498963	4.369087	0.000000	0.000000	25.327198	16.911141	-10.859977	7.620619	-17.147646	-9.130553	49.135937	93.788126	-3.101553	6.727286	15.490053	-15.609538	156.051027	5.765051	5.744700	-5.058383	-5.267910
1.528302	-9.770203	-0.138132	84.211134	0.334188	0.979474	0.640221	5.042509	-10.270532	-13.991249	14.256539	0.248824	42.200863	17.703792	0.000000	5.018848	8.004636	-4.122237	10.326453	0.180231	34.754895	6.125911	0.000000	-0.342164	-1.979696	0.966564	-0.635433	-2.632996	1.026974	-0.562142	-4.813434	1.026974	-0.391060	-4.813434	0.845743	-0.317734	-4.036997	0.785333	-0.195513	-3.066550	0.724923	-2.444046	-22.394722	5.375739	0.000000	0.000000	25.552602	16.547960	-10.283023	7.466996	-16.198385	-6.524081	45.692692	92.714821	-3.677076	5.600175	15.454151	-15.073049	159.131363	4.950483	6.071112	-5.138464	-4.573141
1.547170	-9.758074	-0.200986	83.783249	0.334619	0.978391	0.639541	5.241884	-10.251839	-13.699802	14.398262	0.251297	42.417680	17.825094	0.000000	4.998412	8.010070	-3.871591	10.163755	0.177391	34.895165	5.454843	0.000000	-0.332262	-1.959111	1.165393	-0.617043	-2.605617	1.238230	-0.545873	-4.763381	1.238230	-0.379742	-4.763381	1.019719	-0.308538	-3.995018	0.946882	-0.189854	-3.034662	0.874045	-2.373312	-22.161850	6.481567	0.000000	0.000000	25.805759	16.094751	-9.577239	7.455337	-15.149457	-1.610357	41.762685	89.684640	-4.085385	4.106389	15.415936	-14.505077	162.003616	4.234019	6.483743	-5.296483	-3.953635
1.566038	-9.703614	-0.244295	83.324348	0.334827	0.977232	0.638909	5.458158	-10.212043	-13.382597	14.614237	0.255067	42.646897	17.941903	0.000000	4.968560	7.977931	-3.717817	10.025316	0.174975	35.119260	4.908903	0.000000	-0.325747	-1.925394	1.373943	-0.604944	-2.560774	1.459815	-0.535169	-4.681402	1.459815	-0.372296	-4.681402	1.202200	-0.302488	-3.926263	1.116329	-0.186132	-2.982435	1.030458	-2.326776	-21.780438	7.641461	0.000000	0.000000	26.059213	15.523751	-8.734958	7.565849	-14.078946	5.491923	37.488104	84.898415	-4.417005	2.251561	15.388850	-13.895327	164.744065	3.621457	6.744794	-5.467031	-3.446893
